<svg id="Layer_1" data-name="Layer 1" xmlns="http://www.w3.org/2000/svg" xmlns:xlink="http://www.w3.org/1999/xlink" viewBox="0 0 841.89 204.69"><defs><style>.cls-1{fill:#0d1f2d;}.cls-2{fill:url(#linear-gradient);}</style><linearGradient id="linear-gradient" x1="24.64" y1="40.6" x2="161.17" y2="177.13" gradientUnits="userSpaceOnUse"><stop offset="0" stop-color="#b1dfda"/><stop offset="0.2" stop-color="#a0dad6"/><stop offset="0.59" stop-color="#72cdcb"/><stop offset="1" stop-color="#3dbebe"/></linearGradient></defs><path class="cls-1" d="M285.36,111.29,268,108.22c-15.93-2.94-25.57-11.88-25.57-27,0-19.42,13.41-29.2,36.19-29.2,22.63,0,36,9.92,36,29.62v1.82H298.08V81.67c0-10.06-6.85-15.23-19.42-15.23-12.72,0-19.15,4.47-19.15,13.69,0,7.13,5,11.46,12.58,12.86l17.32,3.07C306,99.13,315,108.08,315,122.89c0,20-13.83,29.76-36.46,29.76s-36.47-9.92-36.47-29.62v-1.82h16.63V123c0,10.06,7.26,15.09,19.84,15.09s19.42-4.2,19.42-14C297.94,116.88,292.91,112.69,285.36,111.29Z"/><path class="cls-1" d="M409.72,151.25c-23.33,0-38.14-12.3-38.14-35.35V88.65c0-22.91,14.81-35.21,38.42-35.21h28.64v14.4H410c-13.55,0-21.8,7.4-21.8,20.81v6.43h43.45v14.39H388.2v6.43c0,13.55,8.25,20.82,21.52,20.82h28.92v14.53Z"/><path class="cls-1" d="M495.23,53.44h38.85c18.58,0,32.41,9.79,32.41,29.21,0,12.15-4.47,20.95-12.16,25.85,8.53,4.19,13.14,12.85,13.14,24.87v17.88H550.42V131.13c0-9.64-4.89-14.67-14.39-14.67H511.86v34.79H495.23Zm38.29,48.63c9.64,0,15.78-4.75,15.78-17.19s-6.14-17-15.78-17H511.86v34.23Z"/><path class="cls-1" d="M698.67,53.44V118c0,22.63-14.67,34.65-37.86,34.65-22.92,0-37.59-12-37.59-34.65V53.44h16.63V118c0,13.13,8.1,20.12,21,20.12,13.13,0,21.23-7,21.23-20.12V53.44Z"/><path class="cls-1" d="M825.26,86.14l-26.68,50.3-26.69-50.3v65.11H755.26V53.44h16.07l27.25,51.42,27.24-51.42h16.07v97.81H825.26Z"/><path class="cls-2" d="M67,30.82c1-1.14,3.83-4.28,6.88-7.61,1.95-2.13,4.07-4.45,5.49-6l5.71,6.94L80.42,29.2c-2.84,3.11-5.79,6.33-6.61,7.32C53,61.41,31.44,87.14,31.44,115.91c0,18,7.36,33.69,20.73,44.23,11,8.68,25.47,13.47,40.74,13.47s29.72-4.79,40.73-13.47c13.37-10.54,20.73-26.25,20.73-44.23,0-28.77-21.54-54.5-42.37-79.39-.82-1-3.76-4.21-6.61-7.32l-4.65-5.09,5.71-6.94c1.42,1.59,3.55,3.91,5.49,6,3,3.33,5.92,6.47,6.88,7.61,21.84,26.1,44.43,53.09,44.43,85.09,0,20.76-8.56,38.94-24.11,51.21-12.57,9.91-29,15.37-46.23,15.37S59.24,177,46.67,167.12c-15.55-12.27-24.11-30.45-24.11-51.21C22.56,83.91,45.15,56.92,67,30.82ZM84,45.07,87,41.55l2.53-3,3.42-4.12,3.41,4.12,2.53,3,2.94,3.52c4.41,5.27,8.85,10.58,13.08,15.92l1.23,1.56c11.78,15,21.7,30.34,24.29,45.7.18,1.06.32,2.12.43,3.18,0,.37.05.75.08,1.13.09,1.12.15,2.23.15,3.35a48.79,48.79,0,0,1-1,10,44.22,44.22,0,0,1-1.44,5.23,39.8,39.8,0,0,1-13.21,18.49,49.13,49.13,0,0,1-19.23,9.07h0c-1,.24-2.08.45-3.13.64l-1.12.18c-1,.16-2.08.3-3.14.4a56.9,56.9,0,0,1-11.67,0c-1.2-.11-2.39-.27-3.56-.46l-.53-.09a50.2,50.2,0,0,1-22.56-9.75,39.8,39.8,0,0,1-13.21-18.49A44.22,44.22,0,0,1,45.77,126a48.8,48.8,0,0,1-1-10c0-1.12,0-2.23.14-3.35,0-.38.05-.76.08-1.13.11-1.06.25-2.12.43-3.18C48,92.89,57.93,77.59,69.71,62.55L70.94,61C75.17,55.65,79.61,50.34,84,45.07ZM92.91,151.4c9.91,0,19.52-3,26.49-8.33l.49-.36a31.32,31.32,0,0,0,11.16-17.36c.12-.47.23-.94.32-1.42A37.52,37.52,0,0,0,132,120c.13-1.34.19-2.71.19-4.11,0-.86,0-1.72-.11-2.59a40.22,40.22,0,0,0-1.2-7.24,58.54,58.54,0,0,0-3.44-9.62c-.06-.14-.12-.29-.19-.43A89.17,89.17,0,0,0,123,88l-.09-.16a173.6,173.6,0,0,0-12.25-17.8c-.33-.43-.67-.86-1-1.3q-2.2-2.82-4.48-5.63v0l-1.36-1.67-.32-.4-.76-.92c-1.68-2.05-3.39-4.1-5.09-6.14L95,50.77c-.69-.83-1.38-1.65-2.06-2.48l-2.07,2.48L88.14,54c-1.7,2-3.41,4.09-5.09,6.14l-.76.92c-.1.14-.21.27-.32.4l-1.36,1.67v0A207.66,207.66,0,0,0,62.87,87.87l-.09.16c-1.56,2.68-3,5.35-4.19,8-.07.14-.12.29-.19.43A58.54,58.54,0,0,0,55,106.08a41.12,41.12,0,0,0-1.2,7.24c-.07.87-.11,1.73-.11,2.59a39.56,39.56,0,0,0,.2,4.11,35,35,0,0,0,.59,3.91c.09.48.2.95.32,1.42a31.38,31.38,0,0,0,11.16,17.36l.49.36C73.38,148.37,83,151.4,92.91,151.4ZM135.85,16.57c-.9-1.07-3.6-4-7.94-8.63-2.8-3-5.91-6.35-7.34-7.94l-5.7,6.93c1.45,1.6,3.65,4,6.54,7.06,3.2,3.43,6.82,7.32,7.62,8.28,22.29,26.63,47.55,56.81,47.55,93.64,0,24.92-10.37,46.82-29.19,61.67-14.9,11.76-34.26,18.23-54.48,18.23s-39.58-6.47-54.49-18.23C19.6,162.73,9.24,140.83,9.24,115.91c0-36.83,25.25-67,47.54-93.64.8-1,4.42-4.85,7.62-8.28,2.89-3.1,5.09-5.46,6.54-7.06L65.24,0C63.81,1.59,60.7,4.93,57.9,7.94c-4.34,4.65-7,7.56-7.94,8.63C26.71,44.35.35,75.85.35,115.91c0,27.7,11.57,52.08,32.57,68.64,16.47,13,37.77,20.14,60,20.14s43.52-7.15,60-20.14c21-16.56,32.56-40.94,32.56-68.64C185.46,75.85,159.1,44.35,135.85,16.57Z"/></svg>