<?xml version="1.0" standalone="no"?>
<!DOCTYPE svg PUBLIC "-//W3C//DTD SVG 20010904//EN"
 "http://www.w3.org/TR/2001/REC-SVG-20010904/DTD/svg10.dtd">
<svg version="1.0" xmlns="http://www.w3.org/2000/svg"
 width="723.000000pt" height="723.000000pt" viewBox="0 0 723.000000 723.000000"
 preserveAspectRatio="xMidYMid meet">
<metadata>
Created by potrace 1.14, written by Peter Selinger 2001-2017
</metadata>
<g transform="translate(0.000000,723.000000) scale(0.100000,-0.100000)"
fill="#000000" stroke="none">
<path d="M6660 6621 c0 -5 -13 -12 -30 -16 -16 -4 -30 -11 -30 -16 0 -5 -9 -9
-20 -9 -11 0 -20 -7 -20 -15 0 -8 -6 -15 -14 -15 -8 0 -16 -7 -20 -15 -3 -8
-12 -15 -21 -15 -8 0 -15 -4 -15 -10 0 -5 -9 -10 -20 -10 -11 0 -23 -7 -26
-15 -4 -8 -12 -15 -20 -15 -8 0 -14 -4 -14 -10 0 -5 -11 -12 -25 -16 -14 -3
-25 -10 -25 -15 0 -4 -16 -11 -35 -15 -19 -3 -35 -10 -35 -15 0 -5 -7 -9 -15
-9 -9 0 -18 -7 -21 -15 -4 -8 -17 -15 -30 -15 -13 0 -24 -4 -24 -9 0 -5 -11
-12 -25 -15 -14 -4 -25 -10 -25 -15 0 -5 -13 -12 -30 -16 -16 -4 -30 -11 -30
-16 0 -5 -7 -9 -15 -9 -8 0 -15 -4 -15 -9 0 -5 -16 -12 -35 -15 -19 -4 -35
-11 -35 -16 0 -4 -13 -11 -30 -15 -16 -4 -30 -11 -30 -16 0 -5 -11 -9 -25 -9
-14 0 -25 -4 -25 -9 0 -5 -13 -12 -30 -16 -16 -4 -30 -10 -30 -15 0 -4 -16
-11 -35 -14 -19 -4 -35 -11 -35 -16 0 -6 -11 -10 -25 -10 -14 0 -25 -4 -25 -9
0 -6 -20 -13 -45 -17 -25 -3 -45 -10 -45 -15 0 -5 -18 -12 -40 -15 -22 -4 -40
-10 -40 -15 0 -5 -11 -9 -25 -9 -14 0 -25 -4 -25 -9 0 -5 -18 -11 -40 -15 -22
-3 -40 -10 -40 -15 0 -5 -25 -12 -55 -16 -30 -3 -55 -10 -55 -14 0 -5 -19 -11
-42 -14 -24 -3 -44 -11 -46 -16 -2 -6 -28 -11 -58 -11 -45 0 -59 4 -77 24 -12
13 -33 27 -47 31 -13 4 -30 14 -38 21 -7 8 -20 14 -28 14 -8 0 -14 5 -14 10 0
6 -7 10 -15 10 -8 0 -15 4 -15 9 0 5 -13 12 -30 16 -16 4 -30 10 -30 15 0 4
-16 11 -35 14 -19 4 -35 11 -35 16 0 6 -7 10 -15 10 -8 0 -15 4 -15 10 0 5
-18 13 -40 16 -22 4 -40 10 -40 15 0 5 -18 12 -40 15 -22 4 -40 10 -40 15 0 5
-11 9 -24 9 -13 0 -26 5 -28 11 -2 5 -22 13 -46 16 -23 3 -42 9 -42 13 0 5
-22 11 -50 15 -27 4 -50 11 -50 16 0 5 -11 9 -25 9 -14 0 -25 4 -25 9 0 5 -35
12 -77 16 -43 4 -80 11 -83 16 -3 4 -49 11 -103 15 -53 4 -97 11 -97 15 0 5
-29 9 -65 9 -37 0 -65 4 -65 10 0 6 -68 10 -185 10 -117 0 -185 -4 -185 -10 0
-6 -33 -10 -80 -10 -44 0 -80 -4 -80 -9 0 -4 -37 -11 -81 -14 -45 -3 -85 -10
-88 -15 -3 -5 -40 -12 -81 -15 -41 -3 -76 -11 -78 -17 -2 -5 -21 -10 -43 -10
-21 0 -39 -4 -39 -9 0 -5 -20 -12 -45 -15 -25 -4 -45 -11 -45 -16 0 -4 -22
-11 -50 -15 -27 -4 -50 -11 -50 -16 0 -5 -11 -9 -25 -9 -14 0 -25 -4 -25 -10
0 -5 -18 -13 -40 -16 -22 -4 -40 -10 -40 -15 0 -5 -18 -12 -40 -15 -25 -4 -41
-13 -45 -24 -4 -11 -20 -20 -45 -24 -22 -3 -40 -11 -40 -16 0 -5 -11 -12 -25
-16 -14 -3 -25 -10 -25 -15 0 -5 -9 -9 -20 -9 -12 0 -31 -11 -43 -24 -13 -14
-35 -28 -50 -31 -15 -4 -27 -11 -27 -15 0 -5 -10 -12 -22 -16 -13 -4 -30 -15
-39 -25 -12 -14 -30 -19 -68 -19 -28 0 -51 5 -51 10 0 6 -7 10 -15 10 -8 0
-15 4 -15 9 0 5 -23 12 -50 16 -27 4 -50 11 -50 15 0 5 -20 12 -45 16 -25 3
-45 10 -45 14 0 4 -21 10 -47 13 -26 3 -49 10 -51 16 -2 6 -15 11 -28 11 -13
0 -24 4 -24 9 0 6 -20 13 -45 17 -25 3 -45 10 -45 14 0 4 -18 10 -40 14 -22 3
-40 11 -40 16 0 6 -11 10 -25 10 -14 0 -25 4 -25 9 0 5 -18 11 -39 15 -21 3
-41 13 -45 21 -3 8 -17 15 -31 15 -14 0 -25 5 -25 10 0 6 -11 10 -25 10 -14 0
-25 4 -25 10 0 5 -11 12 -25 16 -14 3 -25 10 -25 14 0 5 -13 11 -30 15 -16 4
-30 11 -30 16 0 5 -7 9 -15 9 -8 0 -15 4 -15 10 0 5 -15 12 -34 16 -19 3 -37
12 -40 20 -3 8 -12 14 -21 14 -8 0 -15 5 -15 10 0 6 -9 10 -20 10 -11 0 -20 5
-20 10 0 6 -7 10 -15 10 -9 0 -18 6 -21 14 -3 8 -21 17 -40 20 -19 4 -34 11
-34 15 0 5 -11 12 -24 15 -14 3 -28 15 -31 26 -3 11 -13 20 -21 20 -8 0 -22 9
-31 20 -10 11 -25 20 -35 20 -10 0 -18 5 -18 10 0 6 -6 10 -14 10 -8 0 -16 7
-20 15 -3 8 -15 15 -26 15 -11 0 -20 5 -20 10 0 6 -9 10 -20 10 -15 0 -20 -7
-20 -25 0 -14 -4 -25 -10 -25 -5 0 -10 -6 -10 -14 0 -8 -5 -16 -11 -18 -6 -2
-13 -25 -16 -51 -3 -26 -9 -47 -14 -47 -4 0 -11 -31 -15 -70 -3 -38 -11 -70
-15 -70 -5 0 -9 -72 -9 -160 0 -88 4 -160 9 -160 4 0 11 -37 14 -82 4 -45 11
-84 15 -87 5 -3 12 -26 15 -51 3 -24 11 -46 16 -48 6 -2 11 -17 11 -33 0 -16
4 -29 9 -29 5 0 12 -18 16 -40 4 -22 11 -40 15 -40 5 0 12 -16 16 -35 3 -19
10 -35 15 -35 5 0 9 -7 9 -16 0 -8 6 -22 13 -29 31 -35 36 -45 42 -79 4 -20
11 -36 16 -36 5 0 9 -6 9 -14 0 -8 7 -16 15 -20 8 -3 15 -14 15 -25 0 -10 7
-21 15 -25 8 -3 15 -12 15 -21 0 -8 7 -15 15 -15 8 0 15 -9 15 -20 0 -11 18
-38 40 -60 22 -22 40 -47 40 -55 0 -8 9 -15 20 -15 11 0 20 -6 20 -13 0 -12
34 -47 46 -47 10 0 34 -28 34 -39 0 -6 6 -11 14 -11 8 0 17 -11 20 -25 4 -14
10 -25 15 -25 12 0 71 -59 71 -70 0 -5 9 -12 20 -15 15 -5 20 -15 20 -41 0
-19 -4 -34 -10 -34 -5 0 -10 -9 -10 -20 0 -11 -4 -20 -9 -20 -5 0 -12 -18 -16
-40 -4 -22 -11 -40 -16 -40 -5 0 -9 -16 -9 -35 0 -22 -6 -38 -15 -41 -10 -4
-15 -20 -15 -45 0 -21 -4 -39 -9 -39 -4 0 -11 -21 -14 -46 -2 -26 -10 -50 -17
-54 -6 -4 -14 -41 -17 -83 -3 -43 -10 -77 -14 -77 -5 0 -9 -9 -9 -20 0 -11 -4
-20 -9 -20 -5 0 -13 -40 -17 -90 -3 -49 -10 -90 -14 -90 -5 0 -10 -64 -12
-142 -2 -102 -7 -143 -15 -146 -7 -2 -13 -10 -13 -18 0 -8 -4 -14 -9 -14 -5 0
-13 -29 -16 -65 -4 -36 -11 -65 -16 -65 -5 0 -9 -38 -9 -85 0 -47 4 -85 8 -85
5 0 12 -64 15 -142 4 -81 11 -144 17 -146 5 -2 10 -17 10 -33 0 -16 4 -29 9
-29 4 0 12 -28 15 -62 4 -35 12 -66 18 -69 6 -4 13 -30 16 -58 2 -28 8 -51 13
-51 5 0 9 -11 9 -25 0 -14 4 -25 10 -25 5 0 13 -18 16 -40 4 -22 10 -40 14
-40 4 0 10 -18 14 -40 3 -22 11 -40 16 -40 6 0 10 -11 10 -25 0 -14 5 -25 10
-25 6 0 10 -9 10 -19 0 -11 6 -26 14 -33 7 -8 17 -24 20 -36 4 -12 12 -22 17
-22 5 0 9 -9 9 -20 0 -11 4 -20 9 -20 5 0 12 -16 15 -35 4 -19 11 -35 16 -35
4 0 11 -14 15 -30 4 -17 11 -30 16 -30 5 0 11 -11 15 -25 3 -14 10 -25 15 -25
5 0 9 -5 9 -11 0 -7 11 -22 24 -34 13 -12 27 -36 31 -53 3 -18 15 -34 26 -37
10 -4 22 -17 25 -31 3 -13 10 -24 15 -24 5 0 9 -7 9 -15 0 -8 7 -15 15 -15 8
0 15 -7 15 -15 0 -8 4 -15 9 -15 5 0 13 -10 17 -22 3 -12 13 -28 20 -36 8 -7
14 -20 14 -28 0 -8 9 -14 20 -14 11 0 20 -6 20 -14 0 -8 18 -33 40 -55 22 -22
40 -45 40 -51 0 -5 5 -10 11 -10 5 0 53 -43 105 -95 52 -52 99 -95 104 -95 6
0 10 -7 10 -15 0 -8 8 -15 18 -15 9 -1 28 -14 42 -30 13 -17 32 -30 42 -30 10
0 18 -4 18 -9 0 -15 49 -61 65 -61 8 0 15 -7 15 -15 0 -9 9 -15 25 -15 14 0
38 -13 55 -30 17 -16 37 -30 45 -30 8 0 15 -4 15 -10 0 -5 7 -10 15 -10 8 0
15 -4 15 -9 0 -5 10 -13 22 -16 11 -4 31 -18 43 -30 11 -13 33 -27 48 -30 15
-4 27 -11 27 -16 0 -5 11 -9 25 -9 14 0 25 -4 25 -10 0 -5 12 -13 27 -16 15
-4 34 -13 41 -21 7 -7 24 -13 38 -13 13 0 24 -4 24 -10 0 -5 11 -10 25 -10 14
0 25 -4 25 -9 0 -5 14 -12 30 -16 17 -4 30 -11 30 -16 0 -5 18 -12 40 -15 22
-4 40 -10 40 -15 0 -5 18 -9 39 -9 22 0 41 -5 43 -11 2 -5 22 -13 46 -16 23
-3 42 -9 42 -14 0 -4 27 -11 60 -15 33 -4 60 -11 60 -15 0 -5 18 -9 39 -9 22
0 41 -5 43 -11 2 -6 37 -14 78 -17 41 -2 78 -10 82 -16 11 -16 776 -15 786 1
4 7 46 15 100 19 50 4 92 11 92 15 0 5 16 9 35 9 19 0 35 4 35 9 0 6 32 13 70
17 39 3 70 11 70 15 0 5 13 9 29 9 16 0 36 7 45 15 8 8 24 15 34 15 11 0 22 5
24 10 2 6 27 13 56 17 34 4 52 10 52 19 0 9 11 14 30 14 17 0 30 5 30 10 0 6
11 10 25 10 14 0 25 4 25 9 0 5 14 12 30 16 17 4 30 11 30 16 0 5 9 9 20 9 11
0 23 7 26 15 4 8 17 15 30 15 13 0 24 4 24 9 0 5 11 12 25 15 14 4 25 11 25
16 0 5 17 12 37 16 32 6 48 18 93 72 6 6 21 12 34 12 13 0 26 7 30 15 3 8 15
15 26 15 11 0 20 4 20 9 0 14 48 61 63 61 8 0 24 14 37 30 13 17 29 30 36 30
8 0 14 5 14 10 0 6 7 10 16 10 9 0 44 29 79 65 35 36 68 65 74 65 12 0 151
138 151 151 0 17 34 49 52 49 13 0 19 11 24 40 4 22 11 40 16 40 13 0 38 26
38 39 0 6 4 11 10 11 5 0 12 11 16 25 3 14 12 25 20 25 8 0 14 6 14 13 0 7 11
21 25 31 14 10 25 23 25 29 0 5 11 20 25 33 14 13 25 30 25 39 0 8 4 15 9 15
5 0 11 14 15 30 3 18 12 30 21 30 8 0 15 7 15 15 0 8 5 15 10 15 6 0 10 7 10
15 0 8 4 15 9 15 5 0 12 16 15 35 4 19 11 35 16 35 4 0 11 13 15 30 4 16 11
30 15 30 5 0 12 16 16 35 3 19 10 35 15 35 5 0 9 7 9 15 0 8 4 15 9 15 5 0 12
18 16 40 4 22 10 40 15 40 5 0 11 18 15 40 4 22 11 40 16 40 5 0 9 7 9 15 0 8
5 15 10 15 6 0 10 11 10 25 0 13 7 28 15 32 9 6 17 32 21 71 4 34 11 62 15 62
5 0 9 11 9 24 0 13 5 26 11 28 6 2 13 33 16 68 3 36 10 68 15 71 5 3 12 40 15
82 3 43 10 77 14 77 5 0 9 25 9 55 0 30 5 55 10 55 6 0 10 38 10 95 0 57 -4
95 -10 95 -5 0 -10 11 -10 25 0 14 -4 25 -9 25 -5 0 -12 25 -16 55 -3 30 -10
55 -15 55 -4 0 -11 29 -15 65 -3 36 -11 65 -16 65 -5 0 -9 29 -9 65 0 36 -4
65 -8 65 -5 0 -12 62 -16 137 -4 79 -11 140 -17 144 -6 4 -14 27 -16 53 -3 25
-10 46 -14 46 -5 0 -9 18 -9 39 0 25 -5 41 -15 45 -11 4 -15 20 -15 55 0 27
-5 51 -11 53 -6 2 -13 25 -16 51 -3 26 -10 47 -14 47 -5 0 -9 7 -9 15 0 8 -4
15 -9 15 -5 0 -12 19 -16 43 -4 23 -11 44 -16 47 -4 3 -11 28 -14 55 -6 42 -4
54 14 74 12 13 21 30 21 37 0 7 9 16 20 19 11 3 20 10 20 14 0 14 49 61 63 61
8 0 18 11 21 25 4 14 13 25 21 25 8 0 15 7 15 15 0 8 4 15 9 15 13 0 91 82 91
95 0 3 11 16 25 29 14 13 25 28 25 35 0 6 7 11 15 11 8 0 15 7 15 15 0 8 4 15
9 15 5 0 13 10 17 22 3 12 13 28 20 36 8 7 14 20 14 28 0 8 4 14 9 14 5 0 12
14 16 30 4 17 11 30 16 30 5 0 9 9 9 20 0 11 5 20 10 20 6 0 14 8 17 18 4 9
13 23 20 30 7 7 13 25 13 39 0 14 8 33 18 42 11 9 22 33 26 54 4 20 11 37 16
37 6 0 13 18 16 40 4 22 10 40 15 40 5 0 9 11 9 25 0 14 4 25 9 25 5 0 12 38
16 85 4 47 11 85 16 85 5 0 9 82 9 190 0 105 -4 190 -9 190 -5 0 -12 29 -16
65 -3 36 -11 65 -16 65 -5 0 -9 18 -9 40 0 22 -4 40 -10 40 -5 0 -10 10 -10
23 0 12 -9 30 -20 40 -22 19 -40 22 -40 8z"/>
</g>
</svg>
