<svg width="201" height="147" viewBox="0 0 201 147" fill="none" xmlns="http://www.w3.org/2000/svg">
<g clip-path="url(#clip0_2_106)">
<path d="M24 121.361V94.83C23.9995 94.7727 24.0103 94.7158 24.0319 94.6626C24.0535 94.6095 24.0853 94.5612 24.1257 94.5204C24.166 94.4797 24.214 94.4474 24.2669 94.4253C24.3198 94.4032 24.3766 94.3919 24.4339 94.3919H44.5362C44.5935 94.3919 44.6502 94.4032 44.7031 94.4253C44.756 94.4474 44.804 94.4797 44.8444 94.5204C44.8847 94.5612 44.9166 94.6095 44.9382 94.6626C44.9597 94.7158 44.9706 94.7727 44.97 94.83V100.347C44.9706 100.404 44.9597 100.461 44.9382 100.514C44.9166 100.567 44.8847 100.615 44.8444 100.656C44.804 100.697 44.756 100.729 44.7031 100.751C44.6502 100.773 44.5935 100.785 44.5362 100.785H31.9494C31.8332 100.785 31.7219 100.831 31.6397 100.913C31.5576 100.995 31.5115 101.107 31.5115 101.223V103.991C31.5115 104.048 31.5228 104.105 31.5449 104.158C31.567 104.211 31.5993 104.259 31.64 104.3C31.6807 104.34 31.729 104.372 31.7821 104.393C31.8352 104.415 31.892 104.426 31.9494 104.425H39.1742C39.2904 104.425 39.4017 104.471 39.4839 104.554C39.566 104.636 39.6121 104.747 39.6121 104.863V110.292C39.6121 110.409 39.566 110.52 39.4839 110.602C39.4017 110.684 39.2904 110.731 39.1742 110.731H31.9494C31.8919 110.731 31.8349 110.742 31.7818 110.764C31.7287 110.786 31.6804 110.818 31.6397 110.859C31.5991 110.9 31.5668 110.948 31.5448 111.001C31.5228 111.054 31.5115 111.111 31.5115 111.169V114.992C31.5115 115.109 31.5576 115.22 31.6397 115.302C31.7219 115.384 31.8332 115.431 31.9494 115.431H44.8068C44.923 115.431 45.0343 115.477 45.1165 115.559C45.1986 115.641 45.2447 115.752 45.2447 115.869V121.373C45.2447 121.49 45.1986 121.601 45.1165 121.683C45.0343 121.765 44.923 121.811 44.8068 121.811H24.4339C24.3756 121.812 24.3178 121.8 24.2641 121.777C24.2104 121.754 24.1618 121.721 24.1213 121.679C24.0808 121.637 24.0492 121.587 24.0284 121.532C24.0075 121.478 23.9979 121.42 24 121.361Z" fill="#70BF7B"/>
<path d="M59.6068 121.373V120.366C58.9555 120.891 58.2463 121.34 57.4931 121.704C56.6308 122.081 55.6951 122.261 54.7544 122.23C53.8288 122.239 52.913 122.039 52.0755 121.644C51.2083 121.213 50.4667 120.565 49.9219 119.764C49.2441 118.757 48.7533 117.636 48.473 116.454C48.0939 114.858 47.9174 113.22 47.9475 111.579C47.9475 107.875 48.5659 105.154 49.8025 103.418C50.3836 102.578 51.1674 101.898 52.0812 101.443C52.995 100.988 54.0091 100.771 55.0291 100.813C55.9418 100.783 56.8478 100.977 57.6683 101.378C58.3481 101.73 58.9966 102.139 59.6068 102.601V96.3635C59.6085 96.2774 59.6354 96.1938 59.6842 96.1229C59.7331 96.0521 59.8017 95.9972 59.8815 95.9652L66.0913 93.4996C66.1569 93.473 66.228 93.4628 66.2984 93.47C66.3688 93.4771 66.4363 93.5014 66.4952 93.5407C66.5541 93.5799 66.6025 93.633 66.6361 93.6953C66.6698 93.7576 66.6878 93.8271 66.6884 93.898V121.381C66.6884 121.497 66.6423 121.609 66.5602 121.691C66.478 121.773 66.3667 121.819 66.2505 121.819H60.0447C59.9865 121.819 59.9289 121.808 59.8753 121.785C59.8216 121.763 59.773 121.73 59.7322 121.688C59.6915 121.647 59.6594 121.598 59.6379 121.543C59.6163 121.489 59.6058 121.432 59.6068 121.373ZM59.6068 107.771C59.6072 107.704 59.5915 107.637 59.561 107.577C59.5306 107.516 59.4862 107.464 59.4317 107.425C59.1387 107.201 58.824 107.007 58.4923 106.847C58.0567 106.649 57.5813 106.553 57.103 106.568C56.7723 106.561 56.4444 106.63 56.1437 106.767C55.838 106.93 55.5914 107.185 55.4391 107.496C55.2121 107.955 55.0666 108.449 55.0092 108.958C54.906 109.75 54.8595 110.549 54.8699 111.348C54.8602 112.198 54.9068 113.049 55.0092 113.893C55.0631 114.444 55.2084 114.983 55.4391 115.486C55.5899 115.822 55.8437 116.101 56.1636 116.283C56.4686 116.43 56.8041 116.504 57.1428 116.498C57.6076 116.51 58.0691 116.416 58.4923 116.223C58.8232 116.059 59.1389 115.866 59.4357 115.646C59.4889 115.604 59.5319 115.551 59.5616 115.49C59.5912 115.429 59.6067 115.363 59.6068 115.295V107.771Z" fill="#69B98A"/>
<path d="M82.6946 121.361V120.429C82.0406 120.942 81.3235 121.369 80.561 121.7C79.6107 122.082 78.5913 122.263 77.5675 122.23C75.2986 122.23 73.6227 121.506 72.54 120.059C71.4572 118.612 70.9159 116.53 70.9159 113.813V101.681C70.9159 101.623 70.9272 101.566 70.9492 101.513C70.9712 101.46 71.0035 101.412 71.0441 101.371C71.0848 101.33 71.133 101.298 71.1862 101.276C71.2393 101.254 71.2962 101.243 71.3537 101.243H77.5596C77.6757 101.243 77.7871 101.289 77.8692 101.371C77.9513 101.453 77.9974 101.565 77.9974 101.681V112.913C77.9974 114.241 78.2058 115.134 78.6224 115.594C78.8431 115.826 79.1114 116.007 79.409 116.126C79.7066 116.244 80.0263 116.296 80.346 116.279C80.6633 116.296 80.9806 116.245 81.2769 116.13C81.5733 116.016 81.8421 115.84 82.0656 115.614C82.4849 115.173 82.6946 114.298 82.6946 112.989V101.681C82.6941 101.624 82.7049 101.567 82.7265 101.514C82.748 101.46 82.7799 101.412 82.8203 101.371C82.8606 101.331 82.9086 101.298 82.9615 101.276C83.0144 101.254 83.0712 101.243 83.1285 101.243H89.3383C89.4544 101.243 89.5658 101.289 89.6479 101.371C89.73 101.453 89.7762 101.565 89.7762 101.681V121.361C89.7762 121.419 89.7648 121.476 89.7428 121.529C89.7208 121.582 89.6886 121.631 89.6479 121.671C89.6072 121.712 89.559 121.744 89.5058 121.766C89.4527 121.788 89.3958 121.8 89.3383 121.8H83.1285C83.0712 121.8 83.0144 121.788 82.9615 121.766C82.9086 121.744 82.8606 121.712 82.8203 121.671C82.7799 121.63 82.748 121.582 82.7265 121.529C82.7049 121.476 82.6941 121.419 82.6946 121.361Z" fill="#63B298"/>
<path d="M120.765 107.938C120.823 110.149 120.506 112.354 119.826 114.459C119.278 116.103 118.307 117.574 117.012 118.725C115.668 119.855 114.081 120.66 112.374 121.075C110.28 121.589 108.129 121.833 105.973 121.8H97.5305C97.4143 121.8 97.303 121.753 97.2208 121.671C97.1387 121.589 97.0926 121.478 97.0926 121.361V94.83C97.0926 94.7725 97.1039 94.7155 97.1259 94.6623C97.1479 94.6092 97.1802 94.5609 97.2208 94.5202C97.2615 94.4795 97.3098 94.4472 97.3629 94.4252C97.416 94.4032 97.473 94.3919 97.5305 94.3919H106.686C108.646 94.3728 110.601 94.5963 112.506 95.057C114.143 95.4463 115.665 96.2175 116.948 97.3075C118.214 98.446 119.182 99.8779 119.766 101.478C120.435 103.204 120.768 105.357 120.765 107.938ZM112.979 108.058C112.997 106.965 112.884 105.874 112.645 104.808C112.472 103.987 112.103 103.221 111.57 102.573C111.045 101.981 110.37 101.542 109.616 101.303C108.652 101.011 107.648 100.876 106.642 100.904H105.201C105.144 100.904 105.087 100.916 105.034 100.938C104.98 100.96 104.932 100.992 104.892 101.033C104.851 101.073 104.819 101.122 104.797 101.175C104.775 101.228 104.763 101.285 104.763 101.342V114.885C104.763 115.001 104.809 115.113 104.892 115.195C104.974 115.277 105.085 115.323 105.201 115.323H106.395C107.412 115.343 108.427 115.218 109.409 114.953C110.189 114.736 110.897 114.317 111.463 113.738C112.033 113.106 112.431 112.338 112.617 111.507C112.878 110.377 113 109.218 112.979 108.058Z" fill="#E8CA35"/>
<path d="M141.644 121.493L140.37 117.291C140.341 117.201 140.285 117.124 140.209 117.068C140.133 117.013 140.042 116.984 139.948 116.984H132.385C132.292 116.984 132.201 117.014 132.126 117.069C132.051 117.124 131.995 117.202 131.967 117.291L130.673 121.493C130.645 121.582 130.59 121.66 130.515 121.715C130.439 121.77 130.349 121.8 130.255 121.8H123.034C122.965 121.797 122.898 121.779 122.838 121.745C122.777 121.712 122.725 121.665 122.687 121.608C122.648 121.551 122.623 121.486 122.614 121.417C122.606 121.349 122.613 121.279 122.636 121.214L132.258 94.6786C132.287 94.5962 132.341 94.5248 132.412 94.4736C132.483 94.4224 132.568 94.3939 132.656 94.3919H139.713C139.801 94.3944 139.885 94.4231 139.956 94.4743C140.027 94.5254 140.081 94.5965 140.111 94.6786L149.733 121.214C149.756 121.279 149.763 121.349 149.755 121.417C149.746 121.486 149.721 121.551 149.682 121.608C149.644 121.665 149.592 121.712 149.531 121.745C149.471 121.779 149.403 121.797 149.335 121.8H142.062C141.969 121.8 141.878 121.77 141.803 121.715C141.728 121.66 141.672 121.582 141.644 121.493ZM137.906 109.145C137.671 108.257 137.46 107.488 137.281 106.835C137.102 106.182 136.935 105.596 136.792 105.075C136.648 104.553 136.521 104.075 136.417 103.645L136.358 103.386C136.346 103.338 136.319 103.295 136.28 103.265C136.242 103.234 136.194 103.217 136.145 103.217C136.095 103.217 136.048 103.234 136.009 103.265C135.97 103.295 135.943 103.338 135.932 103.386L135.872 103.664C135.765 104.107 135.641 104.589 135.498 105.11C135.355 105.632 135.191 106.222 135.008 106.875C134.825 107.528 134.61 108.285 134.383 109.145L134.033 110.388C134.014 110.453 134.011 110.522 134.024 110.588C134.036 110.655 134.064 110.718 134.105 110.772C134.146 110.826 134.199 110.87 134.26 110.9C134.32 110.93 134.387 110.946 134.455 110.946H137.834C137.902 110.946 137.969 110.93 138.03 110.9C138.09 110.87 138.143 110.826 138.184 110.772C138.225 110.718 138.253 110.655 138.265 110.588C138.278 110.522 138.275 110.453 138.256 110.388L137.906 109.145Z" fill="#F4B23F"/>
<path d="M176.992 108.058C177.026 110.112 176.708 112.157 176.053 114.104C175.496 115.752 174.603 117.266 173.429 118.549C172.308 119.752 170.932 120.689 169.401 121.29C167.768 121.93 166.027 122.249 164.274 122.23C162.529 122.249 160.796 121.937 159.167 121.31C157.647 120.719 156.277 119.796 155.158 118.609C153.985 117.336 153.098 115.828 152.555 114.184C151.912 112.233 151.601 110.188 151.635 108.134C151.602 106.079 151.919 104.034 152.575 102.087C153.131 100.439 154.025 98.9254 155.198 97.6421C156.319 96.4389 157.696 95.5025 159.226 94.9017C160.861 94.2644 162.603 93.9493 164.357 93.9736C166.103 93.9542 167.836 94.2665 169.465 94.8937C170.977 95.4832 172.338 96.4062 173.445 97.5943C174.61 98.8732 175.496 100.38 176.049 102.019C176.704 103.964 177.023 106.006 176.992 108.058ZM169.126 108.134C169.126 105.656 168.703 103.777 167.856 102.497C167.481 101.891 166.951 101.394 166.323 101.057C165.694 100.72 164.987 100.554 164.274 100.578C163.571 100.55 162.873 100.709 162.251 101.04C161.629 101.37 161.106 101.859 160.735 102.458C159.912 103.708 159.501 105.575 159.501 108.058C159.501 110.541 159.924 112.419 160.771 113.694C161.147 114.301 161.676 114.798 162.305 115.135C162.934 115.472 163.64 115.637 164.353 115.614C165.057 115.641 165.755 115.482 166.377 115.152C166.998 114.821 167.521 114.332 167.892 113.734C168.72 112.48 169.133 110.614 169.13 108.134H169.126Z" fill="#FF994A"/>
<path d="M53.7274 42.5918C53.6919 42.6205 53.6547 42.6471 53.616 42.6714C52.7995 43.2646 52.1593 44.0684 51.7636 44.9972C51.368 45.9259 51.2317 46.9447 51.3694 47.9449C51.5072 48.9451 51.9137 49.8891 52.5456 50.6762C53.1775 51.4633 54.0111 52.0639 54.9575 52.4141C58.3277 53.6594 61.5308 54.8942 64.5667 56.1183C66.8682 53.6373 69.4156 51.3966 72.1698 49.4307C66.5889 47.1657 60.4415 44.886 53.7274 42.5918Z" fill="#5CACA7"/>
<path d="M73.2804 49.845C70.527 51.8133 67.9797 54.0552 65.6773 56.5365C71.2131 58.7989 76.1703 61.0401 80.549 63.26C82.8323 60.761 85.3668 58.504 88.1122 56.5246C83.7309 54.3153 78.7869 52.0888 73.2804 49.845Z" fill="#92A688"/>
<path d="M88.9721 56.9548C86.2257 58.9346 83.6912 61.193 81.4088 63.6942C85.2758 65.6585 89.0002 67.8918 92.5546 70.3778C94.8485 67.8655 97.395 65.5965 100.154 63.6065C96.5803 61.14 92.8446 58.9177 88.9721 56.9548Z" fill="#C99F69"/>
<path d="M100.81 64.0248C98.0491 66.016 95.4988 68.2849 93.1995 70.796L93.2911 70.8637C95.4581 72.4585 98.0787 73.3166 100.769 73.3123C103.459 73.308 106.076 72.4415 108.238 70.8398L108.394 70.7243C106.132 68.207 103.587 65.959 100.81 64.0248Z" fill="#FF994A"/>
<path d="M65.4425 35.454C61.6233 37.4527 57.9314 39.6862 54.3882 42.1416C61.0969 44.4518 67.2404 46.7302 72.8186 48.9766C76.3268 46.5039 79.9928 44.2632 83.7932 42.2691C78.2283 40.028 72.1114 37.7563 65.4425 35.454Z" fill="#63B298"/>
<path d="M84.8839 42.7033C81.0851 44.6979 77.4204 46.9385 73.9133 49.4108C79.4145 51.6573 84.3532 53.8825 88.7292 56.0865C92.2196 53.6049 95.8713 51.3587 99.6601 49.363C95.2893 47.1564 90.3639 44.9365 84.8839 42.7033Z" fill="#93B27A"/>
<path d="M100.536 49.7932C96.7448 51.7932 93.0917 54.0447 89.601 56.5326C93.4795 58.4903 97.2219 60.7073 100.803 63.1684C104.304 60.6765 107.969 58.4236 111.773 56.425C108.176 53.9709 104.422 51.7556 100.536 49.7932Z" fill="#C4B25D"/>
<path d="M112.414 56.8393C108.606 58.8377 104.939 61.092 101.435 63.5866C104.214 65.5232 106.76 67.7739 109.023 70.2941C112.556 67.7904 116.255 65.5282 120.093 63.5229C117.789 61.0168 115.214 58.7751 112.414 56.8393Z" fill="#F4B23F"/>
<path d="M80.963 28.2526C75.4936 30.515 70.6133 32.7734 66.3182 35.0239C72.9818 37.3234 79.0855 39.5938 84.6292 41.835C88.9084 39.5925 93.7448 37.35 99.1744 35.1035C93.6546 32.8518 87.5841 30.5681 80.963 28.2526Z" fill="#69B98A"/>
<path d="M100.289 35.5337C94.8594 37.7802 90.0123 40.024 85.7477 42.2651C91.2251 44.5036 96.1478 46.7235 100.516 48.9249C104.783 46.6864 109.604 44.4479 115.021 42.2134C110.651 40.0041 105.74 37.7775 100.289 35.5337Z" fill="#93BF6E"/>
<path d="M115.897 42.6435C110.483 44.8794 105.648 47.1165 101.392 49.355C105.276 51.3129 109.029 53.5229 112.625 55.971C116.9 53.7325 121.747 51.5019 127.166 49.2794C123.556 46.8284 119.792 44.6119 115.897 42.6435Z" fill="#BEC451"/>
<path d="M127.815 49.7095C122.386 51.9321 117.536 54.1626 113.266 56.4011C116.067 58.337 118.643 60.5787 120.949 63.0848C125.256 60.8463 130.124 58.6197 135.593 56.4091C133.251 53.9006 130.643 51.6543 127.815 49.7095Z" fill="#E8CA35"/>
<path d="M82.2527 27.7468L82.0895 27.8145C88.708 30.1273 94.7772 32.4096 100.297 34.6614C105.801 32.4149 111.905 30.1698 118.608 27.926L118.385 27.8344C106.82 23.0597 93.8412 23.0282 82.2527 27.7468Z" fill="#70BF7B"/>
<path d="M119.719 28.3681C113.007 30.6066 106.904 32.8491 101.408 35.0956C106.858 37.3447 111.768 39.5726 116.136 41.7792C121.627 39.5434 127.714 37.3168 134.399 35.0995C130.023 32.869 125.13 30.6252 119.719 28.3681Z" fill="#94CB60"/>
<path d="M135.267 35.5297C128.585 37.7496 122.494 39.9709 116.996 42.1934C120.89 44.1627 124.654 46.3791 128.265 48.8293C133.772 46.6067 139.875 44.3948 146.576 42.1934C142.947 39.742 139.17 37.5165 135.267 35.5297Z" fill="#B9D745"/>
<path d="M147.245 42.6435C140.528 44.8422 134.424 47.0528 128.934 49.2754C131.762 51.2203 134.37 53.4681 136.712 55.9789C139.631 54.8159 142.72 53.6581 145.979 52.5057C146.94 52.1655 147.789 51.5682 148.434 50.7787C149.08 49.9891 149.496 49.0376 149.639 48.0277C149.781 47.0178 149.644 45.9881 149.242 45.0507C148.841 44.1133 148.19 43.3042 147.36 42.7112L147.245 42.6435Z" fill="#DDE32A"/>
</g>
<defs>
<clipPath id="clip0_2_106">
<rect width="153" height="98" fill="white" transform="translate(24 24.2297)"/>
</clipPath>
</defs>
</svg>
